# xmcd CD database file
#
# Track frame offsets:
#	150
#	25025
#	43195
#	68000
#	89832
#	114085
#	134625
#	165450
#	185890
#	203725
#	222660
#	248460
#	274230
#	300950
#
# Disc length: 4437 seconds
#
# Revision: 9
# Processed by: cddbd v1.5.2PL0 Copyright (c) Steve Scherf et al.
# Submitted via: CDex 1.70beta2
#
DISCID=c811530e
DTITLE=中島みゆきのアルバム - 大吟醸
DYEAR=1996
DGENRE=J-pop
TTITLE0=空と君のあいだに
TTITLE1=悪女
TTITLE2=あした
TTITLE3=最後の女神
TTITLE4=浅い眠り
TTITLE5=ルージュ
TTITLE6=誕生
TTITLE7=時代
TTITLE8=わかれうた
TTITLE9=ひとり上手
TTITLE10=慟哭
TTITLE11=狼になりたい
TTITLE12=旅人のうた
TTITLE13=ファイト!
EXTD=YEAR: 1996
EXTT0=
EXTT1=
EXTT2=
EXTT3=
EXTT4=
EXTT5=
EXTT6=
EXTT7=
EXTT8=
EXTT9=
EXTT10=
EXTT11=
EXTT12=
EXTT13=
PLAYORDER=
